<svg xmlns="http://www.w3.org/2000/svg" width="640" height="205">
<style>
  text {
    font-family: system-ui, -apple-system, BlinkMacSystemFont, "Segoe UI", Roboto, "Helvetica Neue", Arial, sans-serif;
    font-size: 11px;
    fill: #1f2937;
  }
  .hdr-text {
    font-weight: 600;
    fill: #4b5563;
    text-anchor: middle;
  }
  .grid-line {
    stroke: #e5e7eb;
    stroke-width: 1;
  }
  .cell-rect {
    fill: #ffffff;
    stroke: #e5e7eb;
    stroke-width: 1;
  }
  .hdr-rect {
    fill: #f3f4f6;
    stroke: #d1d5db;
    stroke-width: 1;
  }
  .cell-merged {
    fill: #fbfbfb;
  }
  .val-string {
    text-anchor: start;
    fill: #2563eb;
  }
  .val-number {
    text-anchor: end;
    fill: #059669;
  }
  .val-bool {
    text-anchor: middle;
    fill: #7c3aed;
    font-weight: 500;
  }
  .rect-bool {
    fill: #f5f3ff;
  }
  .val-error {
    text-anchor: middle;
    fill: #dc2626;
    font-weight: 500;
  }
  .rect-error {
    fill: #fee2e2;
  }
</style>
  <rect x="40" y="25" width="120" height="30" class="cell-rect" />
  <text x="48" y="44" class="val-string">Name</text>
  <rect x="160" y="25" width="120" height="30" class="cell-rect" />
  <text x="168" y="44" class="val-string">Role</text>
  <rect x="280" y="25" width="120" height="30" class="cell-rect" />
  <text x="288" y="44" class="val-string">Active</text>
  <rect x="400" y="25" width="120" height="30" class="cell-rect" />
  <text x="408" y="44" class="val-string">Start Date</text>
  <rect x="520" y="25" width="120" height="30" class="cell-rect" />
  <rect x="40" y="55" width="120" height="30" class="cell-rect" />
  <text x="48" y="74" class="val-string">Alice</text>
  <rect x="160" y="55" width="120" height="30" class="cell-rect" />
  <text x="168" y="74" class="val-string">Engineer</text>
  <rect x="280" y="55" width="120" height="30" class="cell-rect rect-bool" />
  <text x="340" y="74" class="val-bool">TRUE</text>
  <rect x="400" y="55" width="120" height="30" class="cell-rect" />
  <text x="408" y="74" class="val-string">2023-01-15</text>
  <rect x="520" y="55" width="120" height="30" class="cell-rect" />
  <rect x="40" y="85" width="120" height="30" class="cell-rect" />
  <text x="48" y="104" class="val-string">Bob</text>
  <rect x="160" y="85" width="120" height="30" class="cell-rect" />
  <text x="168" y="104" class="val-string">Manager</text>
  <rect x="280" y="85" width="120" height="30" class="cell-rect rect-bool" />
  <text x="340" y="104" class="val-bool">FALSE</text>
  <rect x="400" y="85" width="120" height="30" class="cell-rect" />
  <text x="408" y="104" class="val-string">2021-06-01</text>
  <rect x="520" y="85" width="120" height="30" class="cell-rect" />
  <rect x="40" y="115" width="120" height="30" class="cell-rect" />
  <rect x="160" y="115" width="120" height="30" class="cell-rect" />
  <rect x="280" y="115" width="120" height="30" class="cell-rect" />
  <rect x="400" y="115" width="120" height="30" class="cell-rect" />
  <rect x="520" y="115" width="120" height="30" class="cell-rect" />
  <rect x="40" y="145" width="120" height="30" class="cell-rect" />
  <rect x="160" y="145" width="360" height="60" class="cell-rect cell-merged" />
  <text x="168" y="179" class="val-string">Confidential - Internal Use Only</text>
  <rect x="520" y="145" width="120" height="30" class="cell-rect" />
  <rect x="40" y="175" width="120" height="30" class="cell-rect" />
  <rect x="520" y="175" width="120" height="30" class="cell-rect" />
  <rect x="40" y="0" width="120" height="25" class="hdr-rect" />
  <text x="100" y="16" class="hdr-text">A (0)</text>
  <rect x="160" y="0" width="120" height="25" class="hdr-rect" />
  <text x="220" y="16" class="hdr-text">B (1)</text>
  <rect x="280" y="0" width="120" height="25" class="hdr-rect" />
  <text x="340" y="16" class="hdr-text">C (2)</text>
  <rect x="400" y="0" width="120" height="25" class="hdr-rect" />
  <text x="460" y="16" class="hdr-text">D (3)</text>
  <rect x="520" y="0" width="120" height="25" class="hdr-rect" />
  <text x="580" y="16" class="hdr-text">E (4)</text>
  <rect x="0" y="25" width="40" height="30" class="hdr-rect" />
  <text x="20" y="44" class="hdr-text">0</text>
  <rect x="0" y="55" width="40" height="30" class="hdr-rect" />
  <text x="20" y="74" class="hdr-text">1</text>
  <rect x="0" y="85" width="40" height="30" class="hdr-rect" />
  <text x="20" y="104" class="hdr-text">2</text>
  <rect x="0" y="115" width="40" height="30" class="hdr-rect" />
  <text x="20" y="134" class="hdr-text">3</text>
  <rect x="0" y="145" width="40" height="30" class="hdr-rect" />
  <text x="20" y="164" class="hdr-text">4</text>
  <rect x="0" y="175" width="40" height="30" class="hdr-rect" />
  <text x="20" y="194" class="hdr-text">5</text>
  <rect x="0" y="0" width="40" height="25" class="hdr-rect" />
</svg>
